<?xml version="1.0" encoding="windows-1252" standalone="no"?>
<!DOCTYPE svg PUBLIC "-//W3C//DTD SVG 1.1//EN" "http://www.w3.org/Graphics/SVG/1.1/DTD/svg11.dtd">
<svg width="1200" height="720" viewBox="0 0 1200 720" xmlns="http://www.w3.org/2000/svg" xmlns:xlink="http://www.w3.org/1999/xlink">

<title>gnuplot</title>
<desc>Produced by GNUPLOT 4.4 patchlevel 4 </desc>

<defs>

	<circle id="gpDot" r="0.5" stroke-width="0.5"/>
	<path id="gpPt0" stroke-width="0.167" stroke="currentColor" d="M-1,0 h2 M0,-1 v2"/>
	<path id="gpPt1" stroke-width="0.167" stroke="currentColor" d="M-1,-1 L1,1 M1,-1 L-1,1"/>
	<path id="gpPt2" stroke-width="0.167" stroke="currentColor" d="M-1,0 L1,0 M0,-1 L0,1 M-1,-1 L1,1 M-1,1 L1,-1"/>
	<rect id="gpPt3" stroke-width="0.167" stroke="currentColor" x="-1" y="-1" width="2" height="2"/>
	<rect id="gpPt4" stroke-width="0.167" stroke="currentColor" fill="currentColor" x="-1" y="-1" width="2" height="2"/>
	<circle id="gpPt5" stroke-width="0.167" stroke="currentColor" cx="0" cy="0" r="1"/>
	<use xlink:href="#gpPt5" id="gpPt6" fill="currentColor" stroke="none"/>
	<path id="gpPt7" stroke-width="0.167" stroke="currentColor" d="M0,-1.33 L-1.33,0.67 L1.33,0.67 z"/>
	<use xlink:href="#gpPt7" id="gpPt8" fill="currentColor" stroke="none"/>
	<use xlink:href="#gpPt7" id="gpPt9" stroke="currentColor" transform="rotate(180)"/>
	<use xlink:href="#gpPt9" id="gpPt10" fill="currentColor" stroke="none"/>
	<use xlink:href="#gpPt3" id="gpPt11" stroke="currentColor" transform="rotate(45)"/>
	<use xlink:href="#gpPt11" id="gpPt12" fill="currentColor" stroke="none"/>
</defs>
<g style="fill:none; color:white; stroke:currentColor; stroke-width:1.00; stroke-linecap:butt; stroke-linejoin:miter">
	<g transform="translate(27.2,308.5)" style="stroke:none; fill:black; font-family:DejaVu Sans; font-size:16.00pt; text-anchor:middle">
		<text><tspan>%</tspan>
		</text>
	</g>
</g>
<g style="fill:none; color:black; stroke:currentColor; stroke-width:1.00; stroke-linecap:butt; stroke-linejoin:miter">
</g>
	<g id="Plot_1"><title>Plot_1</title>
<g style="fill:none; color:red; stroke:currentColor; stroke-width:1.00; stroke-linecap:butt; stroke-linejoin:miter">
	<g transform="translate(1099.1,160.5)" style="stroke:none; fill:black; font-family:DejaVu Sans; font-size:16.00pt; text-anchor:start">
		<text><tspan>mac</tspan>
		</text>
	</g>
	<g style="stroke:none; shape-rendering:crispEdges">
		<polygon fill="rgb(111,   0, 133)" points="1031.1,160.5 1087.9,160.5 1087.9,148.5 1031.1,148.5 "/>
	</g>
	<path stroke="rgb(111,   0, 133)" d="M1031.1,160.5 L1087.9,160.5 L1087.9,148.5 L1031.1,148.5 L1031.1,160.5 Z "/>
	<g style="stroke:none; shape-rendering:crispEdges">
		<polygon fill="rgb(111,   0, 133)" points="72.8,22.5 72.8,22.5 91.3,22.5 119.0,22.5 137.5,22.5 165.3,22.5 183.8,22.5 211.5,22.5 230.0,22.5 257.7,22.5 276.2,22.5 304.0,22.5 322.5,22.5 350.2,22.5 368.7,22.5 396.4,22.5 414.9,22.5 442.7,22.5 461.2,22.5 488.9,22.5 507.4,22.5 535.2,22.5 553.6,22.5 581.4,22.5 599.9,22.5 627.6,22.5 646.1,22.5 673.9,22.5 692.3,22.5 720.1,22.5 738.6,22.5 766.3,22.5 784.8,22.5 812.6,22.5 831.1,22.5 858.8,22.5 877.3,22.5 905.0,22.5 923.5,22.5 923.7,22.5 923.7,640.0 72.8,640.0 "/>
		<polygon fill="rgb(111,   0, 133)" points="969.7,22.5 969.8,22.5 997.5,22.5 997.5,640.0 969.7,640.0 "/>
	</g>
	<path stroke="rgb(111,   0, 133)" d="M72.8,22.5 L91.3,22.5 L119.0,22.5 L137.5,22.5 L165.3,22.5 L183.8,22.5 L211.5,22.5 L230.0,22.5    L257.7,22.5 L276.2,22.5 L304.0,22.5 L322.5,22.5 L350.2,22.5 L368.7,22.5 L396.4,22.5 L414.9,22.5    L442.7,22.5 L461.2,22.5 L488.9,22.5 L507.4,22.5 L535.2,22.5 L553.6,22.5 L581.4,22.5 L599.9,22.5    L627.6,22.5 L646.1,22.5 L673.9,22.5 L692.3,22.5 L720.1,22.5 L738.6,22.5 L766.3,22.5 L784.8,22.5    L812.6,22.5 L831.1,22.5 L858.8,22.5 L877.3,22.5 L905.0,22.5 L923.5,22.5 L923.7,22.5 M969.7,22.5    L969.8,22.5 L997.5,22.5 "/>
</g>
	</g>
	<g id="Plot_2"><title>Plot_2</title>
<g style="fill:none; color:green; stroke:currentColor; stroke-width:1.00; stroke-linecap:butt; stroke-linejoin:miter">
	<g transform="translate(1099.1,136.5)" style="stroke:none; fill:black; font-family:DejaVu Sans; font-size:16.00pt; text-anchor:start">
		<text><tspan>bsd</tspan>
		</text>
	</g>
	<g style="stroke:none; shape-rendering:crispEdges">
		<polygon fill="rgb(247, 197,   0)" points="1031.1,136.5 1087.9,136.5 1087.9,124.5 1031.1,124.5 "/>
	</g>
	<path stroke="rgb(247, 197,   0)" d="M1031.1,136.5 L1087.9,136.5 L1087.9,124.5 L1031.1,124.5 L1031.1,136.5 Z "/>
	<g style="stroke:none; shape-rendering:crispEdges">
		<polygon fill="rgb(247, 197,   0)" points="72.8,22.5 72.8,22.5 91.3,22.5 119.0,22.5 137.5,22.5 165.3,22.5 183.8,22.5 211.5,22.5 230.0,22.5 257.7,22.5 276.2,22.5 304.0,22.5 322.5,22.5 350.2,22.5 368.7,22.5 396.4,22.5 414.9,22.5 442.7,22.5 461.2,22.5 488.9,22.5 507.4,22.5 535.2,22.5 553.6,23.7 581.4,22.5 599.9,25.0 627.6,27.4 646.1,28.7 673.9,28.7 692.3,26.2 720.1,26.2 738.6,25.0 766.3,25.0 784.8,23.7 812.6,22.5 831.1,22.5 858.8,22.5 877.3,22.5 905.0,22.5 923.5,22.5 923.7,22.5 923.7,640.0 72.8,640.0 "/>
		<polygon fill="rgb(247, 197,   0)" points="969.7,22.5 969.8,22.5 997.5,22.5 997.5,640.0 969.7,640.0 "/>
	</g>
	<path stroke="rgb(247, 197,   0)" d="M72.8,22.5 L91.3,22.5 L119.0,22.5 L137.5,22.5 L165.3,22.5 L183.8,22.5 L211.5,22.5 L230.0,22.5    L257.7,22.5 L276.2,22.5 L304.0,22.5 L322.5,22.5 L350.2,22.5 L368.7,22.5 L396.4,22.5 L414.9,22.5    L442.7,22.5 L461.2,22.5 L488.9,22.5 L507.4,22.5 L535.2,22.5 L553.6,23.7 L581.4,22.5 L599.9,25.0    L627.6,27.4 L646.1,28.7 L673.9,28.7 L692.3,26.2 L720.1,26.2 L738.6,25.0 L766.3,25.0 L784.8,23.7    L812.6,22.5 L831.1,22.5 L858.8,22.5 L877.3,22.5 L905.0,22.5 L923.5,22.5 L923.7,22.5 M969.7,22.5    L969.8,22.5 L997.5,22.5 "/>
</g>
	</g>
	<g id="Plot_3"><title>Plot_3</title>
<g style="fill:none; color:blue; stroke:currentColor; stroke-width:1.00; stroke-linecap:butt; stroke-linejoin:miter">
	<g transform="translate(1099.1,112.5)" style="stroke:none; fill:black; font-family:DejaVu Sans; font-size:16.00pt; text-anchor:start">
		<text><tspan>windows</tspan>
		</text>
	</g>
	<g style="stroke:none; shape-rendering:crispEdges">
		<polygon fill="rgb(  0, 173, 239)" points="1031.1,112.5 1087.9,112.5 1087.9,100.5 1031.1,100.5 "/>
	</g>
	<path stroke="rgb(  0, 173, 239)" d="M1031.1,112.5 L1087.9,112.5 L1087.9,100.5 L1031.1,100.5 L1031.1,112.5 Z "/>
	<g style="stroke:none; shape-rendering:crispEdges">
		<polygon fill="rgb(  0, 173, 239)" points="72.8,50.9 72.8,50.9 91.3,52.1 119.0,48.4 137.5,50.9 165.3,46.0 183.8,44.7 211.5,38.6 230.0,36.1 257.7,29.9 276.2,27.4 304.0,26.2 322.5,23.7 350.2,22.5 368.7,33.6 396.4,43.5 414.9,42.3 442.7,38.6 461.2,37.3 488.9,38.6 507.4,37.3 535.2,37.3 553.6,37.3 581.4,33.6 599.9,37.3 627.6,36.1 646.1,33.6 673.9,33.6 692.3,29.9 720.1,31.2 738.6,27.4 766.3,26.2 784.8,25.0 812.6,23.7 831.1,23.7 858.8,23.7 877.3,23.7 905.0,23.7 923.5,23.7 951.3,23.7 969.8,23.7 997.5,23.7 997.5,640.0 72.8,640.0 "/>
	</g>
	<path stroke="rgb(  0, 173, 239)" d="M72.8,50.9 L91.3,52.1 L119.0,48.4 L137.5,50.9 L165.3,46.0 L183.8,44.7 L211.5,38.6 L230.0,36.1    L257.7,29.9 L276.2,27.4 L304.0,26.2 L322.5,23.7 L350.2,22.5 L368.7,33.6 L396.4,43.5 L414.9,42.3    L442.7,38.6 L461.2,37.3 L488.9,38.6 L507.4,37.3 L535.2,37.3 L553.6,37.3 L581.4,33.6 L599.9,37.3    L627.6,36.1 L646.1,33.6 L673.9,33.6 L692.3,29.9 L720.1,31.2 L738.6,27.4 L766.3,26.2 L784.8,25.0    L812.6,23.7 L831.1,23.7 L858.8,23.7 L877.3,23.7 L905.0,23.7 L923.5,23.7 L951.3,23.7 L969.8,23.7    L997.5,23.7 "/>
</g>
	</g>
	<g id="Plot_4"><title>Plot_4</title>
<g style="fill:none; color:cyan; stroke:currentColor; stroke-width:1.00; stroke-linecap:butt; stroke-linejoin:miter">
	<g transform="translate(1099.1,88.5)" style="stroke:none; fill:black; font-family:DejaVu Sans; font-size:16.00pt; text-anchor:start">
		<text><tspan>na/mixed</tspan>
		</text>
	</g>
	<g style="stroke:none; shape-rendering:crispEdges">
		<polygon fill="rgb(229, 229, 229)" points="1031.1,88.5 1087.9,88.5 1087.9,76.5 1031.1,76.5 "/>
	</g>
	<path stroke="rgb(229, 229, 229)" d="M1031.1,88.5 L1087.9,88.5 L1087.9,76.5 L1031.1,76.5 L1031.1,88.5 Z "/>
	<g style="stroke:none; shape-rendering:crispEdges">
		<polygon fill="rgb(229, 229, 229)" points="72.8,50.9 72.8,50.9 91.3,52.1 119.0,48.4 137.5,50.9 165.3,46.0 183.8,44.7 211.5,38.6 230.0,36.1 257.7,29.9 276.2,27.4 304.0,26.2 322.5,23.7 350.2,22.5 368.7,33.6 396.4,43.5 414.9,42.3 442.7,38.6 461.2,38.6 488.9,38.6 507.4,37.3 535.2,38.6 553.6,38.6 581.4,34.9 599.9,38.6 627.6,37.3 646.1,34.9 673.9,36.1 692.3,29.9 720.1,34.9 738.6,36.1 766.3,32.4 784.8,31.2 812.6,29.9 831.1,29.9 858.8,29.9 877.3,29.9 905.0,28.7 923.5,25.0 951.3,26.2 969.8,27.4 997.5,27.4 997.5,640.0 72.8,640.0 "/>
	</g>
	<path stroke="rgb(229, 229, 229)" d="M72.8,50.9 L91.3,52.1 L119.0,48.4 L137.5,50.9 L165.3,46.0 L183.8,44.7 L211.5,38.6 L230.0,36.1    L257.7,29.9 L276.2,27.4 L304.0,26.2 L322.5,23.7 L350.2,22.5 L368.7,33.6 L396.4,43.5 L414.9,42.3    L442.7,38.6 L461.2,38.6 L488.9,38.6 L507.4,37.3 L535.2,38.6 L553.6,38.6 L581.4,34.9 L599.9,38.6    L627.6,37.3 L646.1,34.9 L673.9,36.1 L692.3,29.9 L720.1,34.9 L738.6,36.1 L766.3,32.4 L784.8,31.2    L812.6,29.9 L831.1,29.9 L858.8,29.9 L877.3,29.9 L905.0,28.7 L923.5,25.0 L951.3,26.2 L969.8,27.4    L997.5,27.4 "/>
</g>
	</g>
	<g id="Plot_5"><title>Plot_5</title>
<g style="fill:none; color:#157545; stroke:currentColor; stroke-width:1.00; stroke-linecap:butt; stroke-linejoin:miter">
	<g transform="translate(1099.1,64.5)" style="stroke:none; fill:black; font-family:DejaVu Sans; font-size:16.00pt; text-anchor:start">
		<text><tspan>unix</tspan>
		</text>
	</g>
	<g style="stroke:none; shape-rendering:crispEdges">
		<polygon fill="rgb(173, 216, 230)" points="1031.1,64.5 1087.9,64.5 1087.9,52.5 1031.1,52.5 "/>
	</g>
	<path stroke="rgb(173, 216, 230)" d="M1031.1,64.5 L1087.9,64.5 L1087.9,52.5 L1031.1,52.5 L1031.1,64.5 Z "/>
	<g style="stroke:none; shape-rendering:crispEdges">
		<polygon fill="rgb(173, 216, 230)" points="72.8,62.0 72.8,62.0 91.3,62.0 119.0,57.1 137.5,50.9 165.3,46.0 183.8,44.7 211.5,38.6 230.0,36.1 257.7,29.9 276.2,27.4 304.0,26.2 322.5,25.0 350.2,23.7 368.7,36.1 396.4,46.0 414.9,46.0 442.7,42.3 461.2,44.7 488.9,46.0 507.4,41.0 535.2,41.0 553.6,55.9 581.4,54.6 599.9,42.3 627.6,57.1 646.1,60.8 673.9,68.2 692.3,69.4 720.1,86.7 738.6,80.6 766.3,81.8 784.8,69.4 812.6,65.7 831.1,58.3 858.8,50.9 877.3,49.7 905.0,47.2 923.5,38.6 951.3,39.8 969.8,36.1 997.5,32.4 997.5,640.0 72.8,640.0 "/>
	</g>
	<path stroke="rgb(173, 216, 230)" d="M72.8,62.0 L91.3,62.0 L119.0,57.1 L137.5,50.9 L165.3,46.0 L183.8,44.7 L211.5,38.6 L230.0,36.1    L257.7,29.9 L276.2,27.4 L304.0,26.2 L322.5,25.0 L350.2,23.7 L368.7,36.1 L396.4,46.0 L414.9,46.0    L442.7,42.3 L461.2,44.7 L488.9,46.0 L507.4,41.0 L535.2,41.0 L553.6,55.9 L581.4,54.6 L599.9,42.3    L627.6,57.1 L646.1,60.8 L673.9,68.2 L692.3,69.4 L720.1,86.7 L738.6,80.6 L766.3,81.8 L784.8,69.4    L812.6,65.7 L831.1,58.3 L858.8,50.9 L877.3,49.7 L905.0,47.2 L923.5,38.6 L951.3,39.8 L969.8,36.1    L997.5,32.4 "/>
</g>
	</g>
	<g id="Plot_6"><title>Plot_6</title>
<g style="fill:none; color:#000094; stroke:currentColor; stroke-width:1.00; stroke-linecap:butt; stroke-linejoin:miter">
	<g transform="translate(1099.1,40.5)" style="stroke:none; fill:black; font-family:DejaVu Sans; font-size:16.00pt; text-anchor:start">
		<text><tspan>linux</tspan>
		</text>
	</g>
	<g style="stroke:none; shape-rendering:crispEdges">
		<polygon fill="rgb(  0, 192,   0)" points="1031.1,40.5 1087.9,40.5 1087.9,28.5 1031.1,28.5 "/>
	</g>
	<path stroke="rgb(  0, 192,   0)" d="M1031.1,40.5 L1087.9,40.5 L1087.9,28.5 L1031.1,28.5 L1031.1,40.5 Z "/>
	<g style="stroke:none; shape-rendering:crispEdges">
		<polygon fill="rgb(  0, 192,   0)" points="72.8,640.0 72.8,640.0 91.3,640.0 119.0,640.0 137.5,640.0 165.3,640.0 183.8,640.0 211.5,640.0 230.0,640.0 257.7,640.0 276.2,640.0 304.0,638.8 322.5,638.8 350.2,619.0 368.7,617.8 396.4,605.4 414.9,573.3 442.7,585.7 461.2,591.8 488.9,557.3 507.4,549.8 535.2,472.0 553.6,412.8 581.4,290.5 599.9,267.0 627.6,247.3 646.1,180.6 673.9,186.8 692.3,175.6 720.1,159.6 738.6,117.6 766.3,112.7 784.8,97.8 812.6,92.9 831.1,89.2 858.8,78.1 877.3,73.1 905.0,75.6 923.5,75.6 951.3,69.4 969.8,60.8 997.5,52.1 997.5,640.0 72.8,640.0 "/>
	</g>
	<path stroke="rgb(  0, 192,   0)" d="M72.8,640.0 L91.3,640.0 L119.0,640.0 L137.5,640.0 L165.3,640.0 L183.8,640.0 L211.5,640.0 L230.0,640.0    L257.7,640.0 L276.2,640.0 L304.0,638.8 L322.5,638.8 L350.2,619.0 L368.7,617.8 L396.4,605.4 L414.9,573.3    L442.7,585.7 L461.2,591.8 L488.9,557.3 L507.4,549.8 L535.2,472.0 L553.6,412.8 L581.4,290.5 L599.9,267.0    L627.6,247.3 L646.1,180.6 L673.9,186.8 L692.3,175.6 L720.1,159.6 L738.6,117.6 L766.3,112.7 L784.8,97.8    L812.6,92.9 L831.1,89.2 L858.8,78.1 L877.3,73.1 L905.0,75.6 L923.5,75.6 L951.3,69.4 L969.8,60.8    L997.5,52.1 "/>
</g>
	</g>
<g style="fill:none; color:black; stroke:currentColor; stroke-width:1.00; stroke-linecap:butt; stroke-linejoin:miter">
</g>
<g style="fill:none; color:gray; stroke:currentColor; stroke-width:1.00; stroke-linecap:butt; stroke-linejoin:miter">
	<path d="M72.8,640.0 L997.5,640.0 "/>
</g>
<g style="fill:none; color:black; stroke:currentColor; stroke-width:1.00; stroke-linecap:butt; stroke-linejoin:miter">
	<path d="M72.8,640.0 M997.5,640.0 "/>
	<g transform="translate(61.6,646.0)" style="stroke:none; fill:black; font-family:DejaVu Sans; font-size:16.00pt; text-anchor:end">
		<text><tspan> 0</tspan>
		</text>
	</g>
</g>
<g style="fill:none; color:gray; stroke:currentColor; stroke-width:1.00; stroke-linecap:butt; stroke-linejoin:miter">
	<path d="M72.8,578.3 L997.5,578.3 "/>
</g>
<g style="fill:none; color:black; stroke:currentColor; stroke-width:1.00; stroke-linecap:butt; stroke-linejoin:miter">
	<path d="M72.8,578.3 M997.5,578.3 "/>
	<g transform="translate(61.6,584.3)" style="stroke:none; fill:black; font-family:DejaVu Sans; font-size:16.00pt; text-anchor:end">
		<text><tspan> 10</tspan>
		</text>
	</g>
</g>
<g style="fill:none; color:gray; stroke:currentColor; stroke-width:1.00; stroke-linecap:butt; stroke-linejoin:miter">
	<path d="M72.8,516.5 L997.5,516.5 "/>
</g>
<g style="fill:none; color:black; stroke:currentColor; stroke-width:1.00; stroke-linecap:butt; stroke-linejoin:miter">
	<path d="M72.8,516.5 M997.5,516.5 "/>
	<g transform="translate(61.6,522.5)" style="stroke:none; fill:black; font-family:DejaVu Sans; font-size:16.00pt; text-anchor:end">
		<text><tspan> 20</tspan>
		</text>
	</g>
</g>
<g style="fill:none; color:gray; stroke:currentColor; stroke-width:1.00; stroke-linecap:butt; stroke-linejoin:miter">
	<path d="M72.8,454.8 L997.5,454.8 "/>
</g>
<g style="fill:none; color:black; stroke:currentColor; stroke-width:1.00; stroke-linecap:butt; stroke-linejoin:miter">
	<path d="M72.8,454.8 M997.5,454.8 "/>
	<g transform="translate(61.6,460.8)" style="stroke:none; fill:black; font-family:DejaVu Sans; font-size:16.00pt; text-anchor:end">
		<text><tspan> 30</tspan>
		</text>
	</g>
</g>
<g style="fill:none; color:gray; stroke:currentColor; stroke-width:1.00; stroke-linecap:butt; stroke-linejoin:miter">
	<path d="M72.8,393.0 L997.5,393.0 "/>
</g>
<g style="fill:none; color:black; stroke:currentColor; stroke-width:1.00; stroke-linecap:butt; stroke-linejoin:miter">
	<path d="M72.8,393.0 M997.5,393.0 "/>
	<g transform="translate(61.6,399.0)" style="stroke:none; fill:black; font-family:DejaVu Sans; font-size:16.00pt; text-anchor:end">
		<text><tspan> 40</tspan>
		</text>
	</g>
</g>
<g style="fill:none; color:gray; stroke:currentColor; stroke-width:1.00; stroke-linecap:butt; stroke-linejoin:miter">
	<path d="M72.8,331.3 L997.5,331.3 "/>
</g>
<g style="fill:none; color:black; stroke:currentColor; stroke-width:1.00; stroke-linecap:butt; stroke-linejoin:miter">
	<path d="M72.8,331.3 M997.5,331.3 "/>
	<g transform="translate(61.6,337.3)" style="stroke:none; fill:black; font-family:DejaVu Sans; font-size:16.00pt; text-anchor:end">
		<text><tspan> 50</tspan>
		</text>
	</g>
</g>
<g style="fill:none; color:gray; stroke:currentColor; stroke-width:1.00; stroke-linecap:butt; stroke-linejoin:miter">
	<path d="M72.8,269.5 L997.5,269.5 "/>
</g>
<g style="fill:none; color:black; stroke:currentColor; stroke-width:1.00; stroke-linecap:butt; stroke-linejoin:miter">
	<path d="M72.8,269.5 M997.5,269.5 "/>
	<g transform="translate(61.6,275.5)" style="stroke:none; fill:black; font-family:DejaVu Sans; font-size:16.00pt; text-anchor:end">
		<text><tspan> 60</tspan>
		</text>
	</g>
</g>
<g style="fill:none; color:gray; stroke:currentColor; stroke-width:1.00; stroke-linecap:butt; stroke-linejoin:miter">
	<path d="M72.8,207.8 L997.5,207.8 "/>
</g>
<g style="fill:none; color:black; stroke:currentColor; stroke-width:1.00; stroke-linecap:butt; stroke-linejoin:miter">
	<path d="M72.8,207.8 M997.5,207.8 "/>
	<g transform="translate(61.6,213.8)" style="stroke:none; fill:black; font-family:DejaVu Sans; font-size:16.00pt; text-anchor:end">
		<text><tspan> 70</tspan>
		</text>
	</g>
</g>
<g style="fill:none; color:gray; stroke:currentColor; stroke-width:1.00; stroke-linecap:butt; stroke-linejoin:miter">
	<path d="M72.8,146.0 L997.5,146.0 "/>
</g>
<g style="fill:none; color:black; stroke:currentColor; stroke-width:1.00; stroke-linecap:butt; stroke-linejoin:miter">
	<path d="M72.8,146.0 M997.5,146.0 "/>
	<g transform="translate(61.6,152.0)" style="stroke:none; fill:black; font-family:DejaVu Sans; font-size:16.00pt; text-anchor:end">
		<text><tspan> 80</tspan>
		</text>
	</g>
</g>
<g style="fill:none; color:gray; stroke:currentColor; stroke-width:1.00; stroke-linecap:butt; stroke-linejoin:miter">
	<path d="M72.8,84.3 L997.5,84.3 "/>
</g>
<g style="fill:none; color:black; stroke:currentColor; stroke-width:1.00; stroke-linecap:butt; stroke-linejoin:miter">
	<path d="M72.8,84.3 M997.5,84.3 "/>
	<g transform="translate(61.6,90.3)" style="stroke:none; fill:black; font-family:DejaVu Sans; font-size:16.00pt; text-anchor:end">
		<text><tspan> 90</tspan>
		</text>
	</g>
</g>
<g style="fill:none; color:gray; stroke:currentColor; stroke-width:1.00; stroke-linecap:butt; stroke-linejoin:miter">
	<path d="M72.8,22.5 L997.5,22.5 "/>
</g>
<g style="fill:none; color:black; stroke:currentColor; stroke-width:1.00; stroke-linecap:butt; stroke-linejoin:miter">
	<path d="M72.8,22.5 M997.5,22.5 "/>
	<g transform="translate(61.6,28.5)" style="stroke:none; fill:black; font-family:DejaVu Sans; font-size:16.00pt; text-anchor:end">
		<text><tspan> 100</tspan>
		</text>
	</g>
</g>
<g style="fill:none; color:gray; stroke:currentColor; stroke-width:1.00; stroke-linecap:butt; stroke-linejoin:miter">
	<path d="M95.9,640.0 L95.9,22.5 "/>
</g>
<g style="fill:none; color:black; stroke:currentColor; stroke-width:1.00; stroke-linecap:butt; stroke-linejoin:miter">
	<path d="M95.9,640.0 M95.9,22.5 "/>
	<g transform="translate(125.0,706.7) rotate(-90)" style="stroke:none; fill:black; font-family:DejaVu Sans; font-size:16.00pt; text-anchor:start">
		<text><tspan> 1994</tspan>
		</text>
	</g>
</g>
<g style="fill:none; color:gray; stroke:currentColor; stroke-width:1.00; stroke-linecap:butt; stroke-linejoin:miter">
	<path d="M142.2,640.0 L142.2,22.5 "/>
</g>
<g style="fill:none; color:black; stroke:currentColor; stroke-width:1.00; stroke-linecap:butt; stroke-linejoin:miter">
	<path d="M142.2,640.0 M142.2,22.5 "/>
	<g transform="translate(171.3,706.7) rotate(-90)" style="stroke:none; fill:black; font-family:DejaVu Sans; font-size:16.00pt; text-anchor:start">
		<text><tspan> 1995</tspan>
		</text>
	</g>
</g>
<g style="fill:none; color:gray; stroke:currentColor; stroke-width:1.00; stroke-linecap:butt; stroke-linejoin:miter">
	<path d="M188.4,640.0 L188.4,22.5 "/>
</g>
<g style="fill:none; color:black; stroke:currentColor; stroke-width:1.00; stroke-linecap:butt; stroke-linejoin:miter">
	<path d="M188.4,640.0 M188.4,22.5 "/>
	<g transform="translate(217.5,706.7) rotate(-90)" style="stroke:none; fill:black; font-family:DejaVu Sans; font-size:16.00pt; text-anchor:start">
		<text><tspan> 1996</tspan>
		</text>
	</g>
</g>
<g style="fill:none; color:gray; stroke:currentColor; stroke-width:1.00; stroke-linecap:butt; stroke-linejoin:miter">
	<path d="M234.6,640.0 L234.6,22.5 "/>
</g>
<g style="fill:none; color:black; stroke:currentColor; stroke-width:1.00; stroke-linecap:butt; stroke-linejoin:miter">
	<path d="M234.6,640.0 M234.6,22.5 "/>
	<g transform="translate(263.7,706.7) rotate(-90)" style="stroke:none; fill:black; font-family:DejaVu Sans; font-size:16.00pt; text-anchor:start">
		<text><tspan> 1997</tspan>
		</text>
	</g>
</g>
<g style="fill:none; color:gray; stroke:currentColor; stroke-width:1.00; stroke-linecap:butt; stroke-linejoin:miter">
	<path d="M280.9,640.0 L280.9,22.5 "/>
</g>
<g style="fill:none; color:black; stroke:currentColor; stroke-width:1.00; stroke-linecap:butt; stroke-linejoin:miter">
	<path d="M280.9,640.0 M280.9,22.5 "/>
	<g transform="translate(310.0,706.7) rotate(-90)" style="stroke:none; fill:black; font-family:DejaVu Sans; font-size:16.00pt; text-anchor:start">
		<text><tspan> 1998</tspan>
		</text>
	</g>
</g>
<g style="fill:none; color:gray; stroke:currentColor; stroke-width:1.00; stroke-linecap:butt; stroke-linejoin:miter">
	<path d="M327.1,640.0 L327.1,22.5 "/>
</g>
<g style="fill:none; color:black; stroke:currentColor; stroke-width:1.00; stroke-linecap:butt; stroke-linejoin:miter">
	<path d="M327.1,640.0 M327.1,22.5 "/>
	<g transform="translate(356.2,706.7) rotate(-90)" style="stroke:none; fill:black; font-family:DejaVu Sans; font-size:16.00pt; text-anchor:start">
		<text><tspan> 1999</tspan>
		</text>
	</g>
</g>
<g style="fill:none; color:gray; stroke:currentColor; stroke-width:1.00; stroke-linecap:butt; stroke-linejoin:miter">
	<path d="M373.3,640.0 L373.3,22.5 "/>
</g>
<g style="fill:none; color:black; stroke:currentColor; stroke-width:1.00; stroke-linecap:butt; stroke-linejoin:miter">
	<path d="M373.3,640.0 M373.3,22.5 "/>
	<g transform="translate(402.4,706.7) rotate(-90)" style="stroke:none; fill:black; font-family:DejaVu Sans; font-size:16.00pt; text-anchor:start">
		<text><tspan> 2000</tspan>
		</text>
	</g>
</g>
<g style="fill:none; color:gray; stroke:currentColor; stroke-width:1.00; stroke-linecap:butt; stroke-linejoin:miter">
	<path d="M419.6,640.0 L419.6,22.5 "/>
</g>
<g style="fill:none; color:black; stroke:currentColor; stroke-width:1.00; stroke-linecap:butt; stroke-linejoin:miter">
	<path d="M419.6,640.0 M419.6,22.5 "/>
	<g transform="translate(448.7,706.7) rotate(-90)" style="stroke:none; fill:black; font-family:DejaVu Sans; font-size:16.00pt; text-anchor:start">
		<text><tspan> 2001</tspan>
		</text>
	</g>
</g>
<g style="fill:none; color:gray; stroke:currentColor; stroke-width:1.00; stroke-linecap:butt; stroke-linejoin:miter">
	<path d="M465.8,640.0 L465.8,22.5 "/>
</g>
<g style="fill:none; color:black; stroke:currentColor; stroke-width:1.00; stroke-linecap:butt; stroke-linejoin:miter">
	<path d="M465.8,640.0 M465.8,22.5 "/>
	<g transform="translate(494.9,706.7) rotate(-90)" style="stroke:none; fill:black; font-family:DejaVu Sans; font-size:16.00pt; text-anchor:start">
		<text><tspan> 2002</tspan>
		</text>
	</g>
</g>
<g style="fill:none; color:gray; stroke:currentColor; stroke-width:1.00; stroke-linecap:butt; stroke-linejoin:miter">
	<path d="M512.0,640.0 L512.0,22.5 "/>
</g>
<g style="fill:none; color:black; stroke:currentColor; stroke-width:1.00; stroke-linecap:butt; stroke-linejoin:miter">
	<path d="M512.0,640.0 M512.0,22.5 "/>
	<g transform="translate(541.1,706.7) rotate(-90)" style="stroke:none; fill:black; font-family:DejaVu Sans; font-size:16.00pt; text-anchor:start">
		<text><tspan> 2003</tspan>
		</text>
	</g>
</g>
<g style="fill:none; color:gray; stroke:currentColor; stroke-width:1.00; stroke-linecap:butt; stroke-linejoin:miter">
	<path d="M558.3,640.0 L558.3,22.5 "/>
</g>
<g style="fill:none; color:black; stroke:currentColor; stroke-width:1.00; stroke-linecap:butt; stroke-linejoin:miter">
	<path d="M558.3,640.0 M558.3,22.5 "/>
	<g transform="translate(587.4,706.7) rotate(-90)" style="stroke:none; fill:black; font-family:DejaVu Sans; font-size:16.00pt; text-anchor:start">
		<text><tspan> 2004</tspan>
		</text>
	</g>
</g>
<g style="fill:none; color:gray; stroke:currentColor; stroke-width:1.00; stroke-linecap:butt; stroke-linejoin:miter">
	<path d="M604.5,640.0 L604.5,22.5 "/>
</g>
<g style="fill:none; color:black; stroke:currentColor; stroke-width:1.00; stroke-linecap:butt; stroke-linejoin:miter">
	<path d="M604.5,640.0 M604.5,22.5 "/>
	<g transform="translate(633.6,706.7) rotate(-90)" style="stroke:none; fill:black; font-family:DejaVu Sans; font-size:16.00pt; text-anchor:start">
		<text><tspan> 2005</tspan>
		</text>
	</g>
</g>
<g style="fill:none; color:gray; stroke:currentColor; stroke-width:1.00; stroke-linecap:butt; stroke-linejoin:miter">
	<path d="M650.7,640.0 L650.7,22.5 "/>
</g>
<g style="fill:none; color:black; stroke:currentColor; stroke-width:1.00; stroke-linecap:butt; stroke-linejoin:miter">
	<path d="M650.7,640.0 M650.7,22.5 "/>
	<g transform="translate(679.8,706.7) rotate(-90)" style="stroke:none; fill:black; font-family:DejaVu Sans; font-size:16.00pt; text-anchor:start">
		<text><tspan> 2006</tspan>
		</text>
	</g>
</g>
<g style="fill:none; color:gray; stroke:currentColor; stroke-width:1.00; stroke-linecap:butt; stroke-linejoin:miter">
	<path d="M697.0,640.0 L697.0,22.5 "/>
</g>
<g style="fill:none; color:black; stroke:currentColor; stroke-width:1.00; stroke-linecap:butt; stroke-linejoin:miter">
	<path d="M697.0,640.0 M697.0,22.5 "/>
	<g transform="translate(726.1,706.7) rotate(-90)" style="stroke:none; fill:black; font-family:DejaVu Sans; font-size:16.00pt; text-anchor:start">
		<text><tspan> 2007</tspan>
		</text>
	</g>
</g>
<g style="fill:none; color:gray; stroke:currentColor; stroke-width:1.00; stroke-linecap:butt; stroke-linejoin:miter">
	<path d="M743.2,640.0 L743.2,22.5 "/>
</g>
<g style="fill:none; color:black; stroke:currentColor; stroke-width:1.00; stroke-linecap:butt; stroke-linejoin:miter">
	<path d="M743.2,640.0 M743.2,22.5 "/>
	<g transform="translate(772.3,706.7) rotate(-90)" style="stroke:none; fill:black; font-family:DejaVu Sans; font-size:16.00pt; text-anchor:start">
		<text><tspan> 2008</tspan>
		</text>
	</g>
</g>
<g style="fill:none; color:gray; stroke:currentColor; stroke-width:1.00; stroke-linecap:butt; stroke-linejoin:miter">
	<path d="M789.4,640.0 L789.4,22.5 "/>
</g>
<g style="fill:none; color:black; stroke:currentColor; stroke-width:1.00; stroke-linecap:butt; stroke-linejoin:miter">
	<path d="M789.4,640.0 M789.4,22.5 "/>
	<g transform="translate(818.5,706.7) rotate(-90)" style="stroke:none; fill:black; font-family:DejaVu Sans; font-size:16.00pt; text-anchor:start">
		<text><tspan> 2009</tspan>
		</text>
	</g>
</g>
<g style="fill:none; color:gray; stroke:currentColor; stroke-width:1.00; stroke-linecap:butt; stroke-linejoin:miter">
	<path d="M835.7,640.0 L835.7,22.5 "/>
</g>
<g style="fill:none; color:black; stroke:currentColor; stroke-width:1.00; stroke-linecap:butt; stroke-linejoin:miter">
	<path d="M835.7,640.0 M835.7,22.5 "/>
	<g transform="translate(864.8,706.7) rotate(-90)" style="stroke:none; fill:black; font-family:DejaVu Sans; font-size:16.00pt; text-anchor:start">
		<text><tspan> 2010</tspan>
		</text>
	</g>
</g>
<g style="fill:none; color:gray; stroke:currentColor; stroke-width:1.00; stroke-linecap:butt; stroke-linejoin:miter">
	<path d="M881.9,640.0 L881.9,22.5 "/>
</g>
<g style="fill:none; color:black; stroke:currentColor; stroke-width:1.00; stroke-linecap:butt; stroke-linejoin:miter">
	<path d="M881.9,640.0 M881.9,22.5 "/>
	<text transform="translate(911.0,706.7) rotate(-90)" style="stroke:none; fill:black; font-family:DejaVu Sans; font-size:16.00pt; text-anchor:start">
		<tspan> 2011</tspan>
	</text>
</g>
<g style="fill:none; color:gray; stroke:currentColor; stroke-width:1.00; stroke-linecap:butt; stroke-linejoin:miter">
	<path d="M928.1,640.0 L928.1,22.5 "/>
</g>
<g style="fill:none; color:black; stroke:currentColor; stroke-width:1.00; stroke-linecap:butt; stroke-linejoin:miter">
	<path d="M928.1,640.0 M928.1,22.5 "/>
	<text transform="translate(957.2,706.7) rotate(-90)" style="stroke:none; fill:black; font-family:DejaVu Sans; font-size:16.00pt; text-anchor:start">
		<tspan> 2012</tspan>
	</text>
</g>
<g style="fill:none; color:gray; stroke:currentColor; stroke-width:1.00; stroke-linecap:butt; stroke-linejoin:miter">
	<path d="M974.4,640.0 L974.4,22.5 "/>
</g>
<g style="fill:none; color:black; stroke:currentColor; stroke-width:1.00; stroke-linecap:butt; stroke-linejoin:miter">
	<path d="M974.4,640.0 M974.4,22.5 "/>
	<text transform="translate(1003.5,706.7) rotate(-90)" style="stroke:none; fill:black; font-family:DejaVu Sans; font-size:16.00pt; text-anchor:start">
		<tspan> 2013</tspan>
	</text>
</g>
</svg>